<mxfile host="app.diagrams.net" modified="2024-11-04T16:03:17.322Z" agent="Mozilla/5.0 (Windows NT 10.0; Win64; x64) AppleWebKit/537.36 (KHTML, like Gecko) Chrome/128.0.0.0 YaBrowser/24.10.0.0 Safari/537.36" etag="otISw0BvdDBqf9T_d_8W" version="24.7.1" type="device">
  <diagram name="Страница — 1" id="uzJGhFRsQy7fNbieGFat">
    <mxGraphModel dx="1002" dy="575" grid="0" gridSize="10" guides="1" tooltips="1" connect="1" arrows="1" fold="1" page="0" pageScale="1" pageWidth="827" pageHeight="1169" math="0" shadow="0">
      <root>
        <mxCell id="0" />
        <mxCell id="1" parent="0" />
        <mxCell id="gnUuABjo8lkJeuZGl7Jf-33" value="" style="rounded=0;whiteSpace=wrap;html=1;dashed=1;" vertex="1" parent="1">
          <mxGeometry x="34" y="436" width="632" height="99" as="geometry" />
        </mxCell>
        <mxCell id="gnUuABjo8lkJeuZGl7Jf-30" value="" style="rounded=0;whiteSpace=wrap;html=1;dashed=1;" vertex="1" parent="1">
          <mxGeometry x="38" y="285" width="632" height="99" as="geometry" />
        </mxCell>
        <mxCell id="gnUuABjo8lkJeuZGl7Jf-3" value="" style="edgeStyle=orthogonalEdgeStyle;rounded=0;orthogonalLoop=1;jettySize=auto;html=1;" edge="1" parent="1" source="gnUuABjo8lkJeuZGl7Jf-1" target="gnUuABjo8lkJeuZGl7Jf-2">
          <mxGeometry relative="1" as="geometry" />
        </mxCell>
        <mxCell id="gnUuABjo8lkJeuZGl7Jf-1" value="backbone" style="rounded=0;whiteSpace=wrap;html=1;" vertex="1" parent="1">
          <mxGeometry x="54" y="106" width="166" height="70" as="geometry" />
        </mxCell>
        <mxCell id="gnUuABjo8lkJeuZGl7Jf-5" value="" style="edgeStyle=orthogonalEdgeStyle;rounded=0;orthogonalLoop=1;jettySize=auto;html=1;" edge="1" parent="1" source="gnUuABjo8lkJeuZGl7Jf-2" target="gnUuABjo8lkJeuZGl7Jf-4">
          <mxGeometry relative="1" as="geometry" />
        </mxCell>
        <mxCell id="gnUuABjo8lkJeuZGl7Jf-2" value="head" style="rounded=0;whiteSpace=wrap;html=1;" vertex="1" parent="1">
          <mxGeometry x="267" y="106" width="166" height="70" as="geometry" />
        </mxCell>
        <mxCell id="gnUuABjo8lkJeuZGl7Jf-4" value="output layer" style="rounded=0;whiteSpace=wrap;html=1;" vertex="1" parent="1">
          <mxGeometry x="480" y="106" width="64" height="70" as="geometry" />
        </mxCell>
        <mxCell id="gnUuABjo8lkJeuZGl7Jf-6" value="targets" style="rounded=0;whiteSpace=wrap;html=1;" vertex="1" parent="1">
          <mxGeometry x="591" y="106" width="58" height="70" as="geometry" />
        </mxCell>
        <mxCell id="gnUuABjo8lkJeuZGl7Jf-8" value="" style="endArrow=classic;startArrow=classic;html=1;rounded=0;exitX=1;exitY=0.5;exitDx=0;exitDy=0;entryX=0;entryY=0.5;entryDx=0;entryDy=0;" edge="1" parent="1" source="gnUuABjo8lkJeuZGl7Jf-4" target="gnUuABjo8lkJeuZGl7Jf-6">
          <mxGeometry width="50" height="50" relative="1" as="geometry">
            <mxPoint x="559" y="253" as="sourcePoint" />
            <mxPoint x="609" y="203" as="targetPoint" />
          </mxGeometry>
        </mxCell>
        <mxCell id="gnUuABjo8lkJeuZGl7Jf-9" value="Loss" style="edgeLabel;html=1;align=center;verticalAlign=middle;resizable=0;points=[];" vertex="1" connectable="0" parent="gnUuABjo8lkJeuZGl7Jf-8">
          <mxGeometry x="-0.0043" y="-1" relative="1" as="geometry">
            <mxPoint x="1" y="-14" as="offset" />
          </mxGeometry>
        </mxCell>
        <mxCell id="gnUuABjo8lkJeuZGl7Jf-10" value="Standart method" style="text;html=1;align=center;verticalAlign=middle;resizable=0;points=[];autosize=1;strokeColor=none;fillColor=none;" vertex="1" parent="1">
          <mxGeometry x="54" y="40" width="107" height="26" as="geometry" />
        </mxCell>
        <mxCell id="gnUuABjo8lkJeuZGl7Jf-11" value="" style="edgeStyle=orthogonalEdgeStyle;rounded=0;orthogonalLoop=1;jettySize=auto;html=1;" edge="1" parent="1" source="gnUuABjo8lkJeuZGl7Jf-12" target="gnUuABjo8lkJeuZGl7Jf-14">
          <mxGeometry relative="1" as="geometry" />
        </mxCell>
        <mxCell id="gnUuABjo8lkJeuZGl7Jf-12" value="backbone" style="rounded=0;whiteSpace=wrap;html=1;" vertex="1" parent="1">
          <mxGeometry x="54" y="302" width="166" height="70" as="geometry" />
        </mxCell>
        <mxCell id="gnUuABjo8lkJeuZGl7Jf-13" value="" style="edgeStyle=orthogonalEdgeStyle;rounded=0;orthogonalLoop=1;jettySize=auto;html=1;" edge="1" parent="1" source="gnUuABjo8lkJeuZGl7Jf-14" target="gnUuABjo8lkJeuZGl7Jf-15">
          <mxGeometry relative="1" as="geometry" />
        </mxCell>
        <mxCell id="gnUuABjo8lkJeuZGl7Jf-14" value="head" style="rounded=0;whiteSpace=wrap;html=1;" vertex="1" parent="1">
          <mxGeometry x="267" y="302" width="166" height="70" as="geometry" />
        </mxCell>
        <mxCell id="gnUuABjo8lkJeuZGl7Jf-15" value="output layer" style="rounded=0;whiteSpace=wrap;html=1;" vertex="1" parent="1">
          <mxGeometry x="480" y="302" width="64" height="70" as="geometry" />
        </mxCell>
        <mxCell id="gnUuABjo8lkJeuZGl7Jf-16" value="targets" style="rounded=0;whiteSpace=wrap;html=1;" vertex="1" parent="1">
          <mxGeometry x="591" y="302" width="58" height="70" as="geometry" />
        </mxCell>
        <mxCell id="gnUuABjo8lkJeuZGl7Jf-19" value="&lt;font style=&quot;font-size: 18px;&quot;&gt;&lt;b&gt;Distillation logits&lt;/b&gt;&lt;/font&gt;" style="text;html=1;align=center;verticalAlign=middle;resizable=0;points=[];autosize=1;strokeColor=none;fillColor=none;" vertex="1" parent="1">
          <mxGeometry x="270" y="232" width="163" height="34" as="geometry" />
        </mxCell>
        <mxCell id="gnUuABjo8lkJeuZGl7Jf-20" value="" style="edgeStyle=orthogonalEdgeStyle;rounded=0;orthogonalLoop=1;jettySize=auto;html=1;" edge="1" parent="1" source="gnUuABjo8lkJeuZGl7Jf-21" target="gnUuABjo8lkJeuZGl7Jf-23">
          <mxGeometry relative="1" as="geometry" />
        </mxCell>
        <mxCell id="gnUuABjo8lkJeuZGl7Jf-21" value="backbone" style="rounded=0;whiteSpace=wrap;html=1;" vertex="1" parent="1">
          <mxGeometry x="54" y="450.5" width="166" height="70" as="geometry" />
        </mxCell>
        <mxCell id="gnUuABjo8lkJeuZGl7Jf-22" value="" style="edgeStyle=orthogonalEdgeStyle;rounded=0;orthogonalLoop=1;jettySize=auto;html=1;" edge="1" parent="1" source="gnUuABjo8lkJeuZGl7Jf-23" target="gnUuABjo8lkJeuZGl7Jf-24">
          <mxGeometry relative="1" as="geometry" />
        </mxCell>
        <mxCell id="gnUuABjo8lkJeuZGl7Jf-23" value="head" style="rounded=0;whiteSpace=wrap;html=1;" vertex="1" parent="1">
          <mxGeometry x="267" y="450.5" width="166" height="70" as="geometry" />
        </mxCell>
        <mxCell id="gnUuABjo8lkJeuZGl7Jf-24" value="output layer" style="rounded=0;whiteSpace=wrap;html=1;" vertex="1" parent="1">
          <mxGeometry x="480" y="450.5" width="64" height="70" as="geometry" />
        </mxCell>
        <mxCell id="gnUuABjo8lkJeuZGl7Jf-25" value="targets" style="rounded=0;whiteSpace=wrap;html=1;" vertex="1" parent="1">
          <mxGeometry x="591" y="450.5" width="58" height="70" as="geometry" />
        </mxCell>
        <mxCell id="gnUuABjo8lkJeuZGl7Jf-26" value="" style="endArrow=classic;startArrow=classic;html=1;rounded=0;exitX=1;exitY=0.5;exitDx=0;exitDy=0;entryX=0;entryY=0.5;entryDx=0;entryDy=0;" edge="1" parent="1" source="gnUuABjo8lkJeuZGl7Jf-24" target="gnUuABjo8lkJeuZGl7Jf-25">
          <mxGeometry width="50" height="50" relative="1" as="geometry">
            <mxPoint x="559" y="597.5" as="sourcePoint" />
            <mxPoint x="609" y="547.5" as="targetPoint" />
          </mxGeometry>
        </mxCell>
        <mxCell id="gnUuABjo8lkJeuZGl7Jf-27" value="Loss" style="edgeLabel;html=1;align=center;verticalAlign=middle;resizable=0;points=[];" vertex="1" connectable="0" parent="gnUuABjo8lkJeuZGl7Jf-26">
          <mxGeometry x="-0.0043" y="-1" relative="1" as="geometry">
            <mxPoint x="1" y="-14" as="offset" />
          </mxGeometry>
        </mxCell>
        <mxCell id="gnUuABjo8lkJeuZGl7Jf-28" value="" style="endArrow=classic;startArrow=classic;html=1;rounded=0;entryX=0.5;entryY=1;entryDx=0;entryDy=0;" edge="1" parent="1" source="gnUuABjo8lkJeuZGl7Jf-24" target="gnUuABjo8lkJeuZGl7Jf-15">
          <mxGeometry width="50" height="50" relative="1" as="geometry">
            <mxPoint x="501" y="582" as="sourcePoint" />
            <mxPoint x="551" y="532" as="targetPoint" />
          </mxGeometry>
        </mxCell>
        <mxCell id="gnUuABjo8lkJeuZGl7Jf-29" value="Loss" style="edgeLabel;html=1;align=center;verticalAlign=middle;resizable=0;points=[];" vertex="1" connectable="0" parent="1">
          <mxGeometry x="540" y="456.5" as="geometry">
            <mxPoint x="-13" y="-39" as="offset" />
          </mxGeometry>
        </mxCell>
        <mxCell id="gnUuABjo8lkJeuZGl7Jf-31" value="Teacher" style="text;html=1;align=center;verticalAlign=middle;resizable=0;points=[];autosize=1;strokeColor=none;fillColor=none;fontStyle=1" vertex="1" parent="1">
          <mxGeometry x="38" y="259" width="61" height="26" as="geometry" />
        </mxCell>
        <mxCell id="gnUuABjo8lkJeuZGl7Jf-32" value="Student" style="text;html=1;align=center;verticalAlign=middle;resizable=0;points=[];autosize=1;strokeColor=none;fillColor=none;fontStyle=1" vertex="1" parent="1">
          <mxGeometry x="39" y="410" width="59" height="26" as="geometry" />
        </mxCell>
        <mxCell id="gnUuABjo8lkJeuZGl7Jf-34" value="" style="rounded=0;whiteSpace=wrap;html=1;dashed=1;" vertex="1" parent="1">
          <mxGeometry x="35.5" y="823" width="632" height="99" as="geometry" />
        </mxCell>
        <mxCell id="gnUuABjo8lkJeuZGl7Jf-35" value="" style="rounded=0;whiteSpace=wrap;html=1;dashed=1;" vertex="1" parent="1">
          <mxGeometry x="38" y="634" width="632" height="99" as="geometry" />
        </mxCell>
        <mxCell id="gnUuABjo8lkJeuZGl7Jf-36" value="" style="edgeStyle=orthogonalEdgeStyle;rounded=0;orthogonalLoop=1;jettySize=auto;html=1;" edge="1" parent="1" source="gnUuABjo8lkJeuZGl7Jf-37" target="gnUuABjo8lkJeuZGl7Jf-39">
          <mxGeometry relative="1" as="geometry" />
        </mxCell>
        <mxCell id="gnUuABjo8lkJeuZGl7Jf-60" style="edgeStyle=orthogonalEdgeStyle;rounded=0;orthogonalLoop=1;jettySize=auto;html=1;entryX=0.5;entryY=0;entryDx=0;entryDy=0;" edge="1" parent="1" source="gnUuABjo8lkJeuZGl7Jf-37" target="gnUuABjo8lkJeuZGl7Jf-56">
          <mxGeometry relative="1" as="geometry" />
        </mxCell>
        <mxCell id="gnUuABjo8lkJeuZGl7Jf-37" value="backbone" style="rounded=0;whiteSpace=wrap;html=1;" vertex="1" parent="1">
          <mxGeometry x="54" y="651" width="166" height="70" as="geometry" />
        </mxCell>
        <mxCell id="gnUuABjo8lkJeuZGl7Jf-38" value="" style="edgeStyle=orthogonalEdgeStyle;rounded=0;orthogonalLoop=1;jettySize=auto;html=1;" edge="1" parent="1" source="gnUuABjo8lkJeuZGl7Jf-39" target="gnUuABjo8lkJeuZGl7Jf-40">
          <mxGeometry relative="1" as="geometry" />
        </mxCell>
        <mxCell id="gnUuABjo8lkJeuZGl7Jf-39" value="head" style="rounded=0;whiteSpace=wrap;html=1;" vertex="1" parent="1">
          <mxGeometry x="267" y="651" width="166" height="70" as="geometry" />
        </mxCell>
        <mxCell id="gnUuABjo8lkJeuZGl7Jf-40" value="output layer" style="rounded=0;whiteSpace=wrap;html=1;" vertex="1" parent="1">
          <mxGeometry x="480" y="651" width="64" height="70" as="geometry" />
        </mxCell>
        <mxCell id="gnUuABjo8lkJeuZGl7Jf-41" value="targets" style="rounded=0;whiteSpace=wrap;html=1;" vertex="1" parent="1">
          <mxGeometry x="591" y="651" width="58" height="70" as="geometry" />
        </mxCell>
        <mxCell id="gnUuABjo8lkJeuZGl7Jf-42" value="&lt;font style=&quot;font-size: 18px;&quot;&gt;&lt;b&gt;Distillation, immitation hidden state (no learn apporach)&lt;/b&gt;&lt;/font&gt;" style="text;html=1;align=center;verticalAlign=middle;resizable=0;points=[];autosize=1;strokeColor=none;fillColor=none;" vertex="1" parent="1">
          <mxGeometry x="104" y="581" width="495" height="34" as="geometry" />
        </mxCell>
        <mxCell id="gnUuABjo8lkJeuZGl7Jf-43" value="" style="edgeStyle=orthogonalEdgeStyle;rounded=0;orthogonalLoop=1;jettySize=auto;html=1;" edge="1" parent="1" source="gnUuABjo8lkJeuZGl7Jf-44" target="gnUuABjo8lkJeuZGl7Jf-46">
          <mxGeometry relative="1" as="geometry" />
        </mxCell>
        <mxCell id="gnUuABjo8lkJeuZGl7Jf-44" value="backbone" style="rounded=0;whiteSpace=wrap;html=1;" vertex="1" parent="1">
          <mxGeometry x="55.5" y="837.5" width="166" height="70" as="geometry" />
        </mxCell>
        <mxCell id="gnUuABjo8lkJeuZGl7Jf-45" value="" style="edgeStyle=orthogonalEdgeStyle;rounded=0;orthogonalLoop=1;jettySize=auto;html=1;" edge="1" parent="1" source="gnUuABjo8lkJeuZGl7Jf-46" target="gnUuABjo8lkJeuZGl7Jf-47">
          <mxGeometry relative="1" as="geometry" />
        </mxCell>
        <mxCell id="gnUuABjo8lkJeuZGl7Jf-46" value="head" style="rounded=0;whiteSpace=wrap;html=1;" vertex="1" parent="1">
          <mxGeometry x="268.5" y="837.5" width="166" height="70" as="geometry" />
        </mxCell>
        <mxCell id="gnUuABjo8lkJeuZGl7Jf-47" value="output layer" style="rounded=0;whiteSpace=wrap;html=1;" vertex="1" parent="1">
          <mxGeometry x="481.5" y="837.5" width="64" height="70" as="geometry" />
        </mxCell>
        <mxCell id="gnUuABjo8lkJeuZGl7Jf-48" value="targets" style="rounded=0;whiteSpace=wrap;html=1;" vertex="1" parent="1">
          <mxGeometry x="592.5" y="837.5" width="58" height="70" as="geometry" />
        </mxCell>
        <mxCell id="gnUuABjo8lkJeuZGl7Jf-49" value="" style="endArrow=classic;startArrow=classic;html=1;rounded=0;exitX=1;exitY=0.5;exitDx=0;exitDy=0;entryX=0;entryY=0.5;entryDx=0;entryDy=0;" edge="1" parent="1" source="gnUuABjo8lkJeuZGl7Jf-47" target="gnUuABjo8lkJeuZGl7Jf-48">
          <mxGeometry width="50" height="50" relative="1" as="geometry">
            <mxPoint x="560.5" y="984.5" as="sourcePoint" />
            <mxPoint x="610.5" y="934.5" as="targetPoint" />
          </mxGeometry>
        </mxCell>
        <mxCell id="gnUuABjo8lkJeuZGl7Jf-50" value="Loss" style="edgeLabel;html=1;align=center;verticalAlign=middle;resizable=0;points=[];" vertex="1" connectable="0" parent="gnUuABjo8lkJeuZGl7Jf-49">
          <mxGeometry x="-0.0043" y="-1" relative="1" as="geometry">
            <mxPoint x="1" y="-14" as="offset" />
          </mxGeometry>
        </mxCell>
        <mxCell id="gnUuABjo8lkJeuZGl7Jf-52" value="Loss" style="edgeLabel;html=1;align=center;verticalAlign=middle;resizable=0;points=[];" vertex="1" connectable="0" parent="1">
          <mxGeometry x="541.5" y="843.5" as="geometry">
            <mxPoint x="-13" y="-39" as="offset" />
          </mxGeometry>
        </mxCell>
        <mxCell id="gnUuABjo8lkJeuZGl7Jf-53" value="Teacher" style="text;html=1;align=center;verticalAlign=middle;resizable=0;points=[];autosize=1;strokeColor=none;fillColor=none;fontStyle=1" vertex="1" parent="1">
          <mxGeometry x="38" y="608" width="61" height="26" as="geometry" />
        </mxCell>
        <mxCell id="gnUuABjo8lkJeuZGl7Jf-54" value="Student" style="text;html=1;align=center;verticalAlign=middle;resizable=0;points=[];autosize=1;strokeColor=none;fillColor=none;fontStyle=1" vertex="1" parent="1">
          <mxGeometry x="39" y="797" width="59" height="26" as="geometry" />
        </mxCell>
        <mxCell id="gnUuABjo8lkJeuZGl7Jf-56" value="flatten" style="rounded=0;whiteSpace=wrap;html=1;" vertex="1" parent="1">
          <mxGeometry x="163" y="756" width="54" height="24" as="geometry" />
        </mxCell>
        <mxCell id="gnUuABjo8lkJeuZGl7Jf-57" value="flatten" style="rounded=0;whiteSpace=wrap;html=1;" vertex="1" parent="1">
          <mxGeometry x="167" y="837.5" width="46" height="22" as="geometry" />
        </mxCell>
        <mxCell id="gnUuABjo8lkJeuZGl7Jf-58" value="" style="endArrow=classic;startArrow=classic;html=1;rounded=0;entryX=0.5;entryY=0;entryDx=0;entryDy=0;exitX=0.5;exitY=1;exitDx=0;exitDy=0;" edge="1" parent="1" source="gnUuABjo8lkJeuZGl7Jf-56" target="gnUuABjo8lkJeuZGl7Jf-57">
          <mxGeometry width="50" height="50" relative="1" as="geometry">
            <mxPoint x="47" y="813" as="sourcePoint" />
            <mxPoint x="97" y="763" as="targetPoint" />
          </mxGeometry>
        </mxCell>
        <mxCell id="gnUuABjo8lkJeuZGl7Jf-59" value="Cosine loss" style="edgeLabel;html=1;align=center;verticalAlign=middle;resizable=0;points=[];" vertex="1" connectable="0" parent="gnUuABjo8lkJeuZGl7Jf-58">
          <mxGeometry x="-0.033" y="-2" relative="1" as="geometry">
            <mxPoint x="37" y="-1" as="offset" />
          </mxGeometry>
        </mxCell>
        <mxCell id="gnUuABjo8lkJeuZGl7Jf-61" value="pooling" style="text;html=1;align=center;verticalAlign=middle;resizable=0;points=[];autosize=1;strokeColor=none;fillColor=none;" vertex="1" parent="1">
          <mxGeometry x="108.5" y="740" width="57" height="26" as="geometry" />
        </mxCell>
        <mxCell id="gnUuABjo8lkJeuZGl7Jf-88" value="" style="rounded=0;whiteSpace=wrap;html=1;dashed=1;" vertex="1" parent="1">
          <mxGeometry x="34" y="1219" width="632" height="99" as="geometry" />
        </mxCell>
        <mxCell id="gnUuABjo8lkJeuZGl7Jf-89" value="" style="rounded=0;whiteSpace=wrap;html=1;dashed=1;" vertex="1" parent="1">
          <mxGeometry x="36.5" y="1030" width="632" height="99" as="geometry" />
        </mxCell>
        <mxCell id="gnUuABjo8lkJeuZGl7Jf-90" value="" style="edgeStyle=orthogonalEdgeStyle;rounded=0;orthogonalLoop=1;jettySize=auto;html=1;" edge="1" parent="1" source="gnUuABjo8lkJeuZGl7Jf-92" target="gnUuABjo8lkJeuZGl7Jf-94">
          <mxGeometry relative="1" as="geometry" />
        </mxCell>
        <mxCell id="gnUuABjo8lkJeuZGl7Jf-91" style="edgeStyle=orthogonalEdgeStyle;rounded=0;orthogonalLoop=1;jettySize=auto;html=1;entryX=0.5;entryY=0;entryDx=0;entryDy=0;" edge="1" parent="1" source="gnUuABjo8lkJeuZGl7Jf-92" target="gnUuABjo8lkJeuZGl7Jf-109">
          <mxGeometry relative="1" as="geometry" />
        </mxCell>
        <mxCell id="gnUuABjo8lkJeuZGl7Jf-92" value="backbone" style="rounded=0;whiteSpace=wrap;html=1;" vertex="1" parent="1">
          <mxGeometry x="52.5" y="1047" width="166" height="70" as="geometry" />
        </mxCell>
        <mxCell id="gnUuABjo8lkJeuZGl7Jf-93" value="" style="edgeStyle=orthogonalEdgeStyle;rounded=0;orthogonalLoop=1;jettySize=auto;html=1;" edge="1" parent="1" source="gnUuABjo8lkJeuZGl7Jf-94" target="gnUuABjo8lkJeuZGl7Jf-95">
          <mxGeometry relative="1" as="geometry" />
        </mxCell>
        <mxCell id="gnUuABjo8lkJeuZGl7Jf-94" value="head" style="rounded=0;whiteSpace=wrap;html=1;" vertex="1" parent="1">
          <mxGeometry x="265.5" y="1047" width="166" height="70" as="geometry" />
        </mxCell>
        <mxCell id="gnUuABjo8lkJeuZGl7Jf-95" value="output layer" style="rounded=0;whiteSpace=wrap;html=1;" vertex="1" parent="1">
          <mxGeometry x="478.5" y="1047" width="64" height="70" as="geometry" />
        </mxCell>
        <mxCell id="gnUuABjo8lkJeuZGl7Jf-96" value="targets" style="rounded=0;whiteSpace=wrap;html=1;" vertex="1" parent="1">
          <mxGeometry x="589.5" y="1047" width="58" height="70" as="geometry" />
        </mxCell>
        <mxCell id="gnUuABjo8lkJeuZGl7Jf-97" value="&lt;font style=&quot;font-size: 18px;&quot;&gt;&lt;b&gt;Distillation, add regressor (learn apporach)&lt;/b&gt;&lt;/font&gt;" style="text;html=1;align=center;verticalAlign=middle;resizable=0;points=[];autosize=1;strokeColor=none;fillColor=none;" vertex="1" parent="1">
          <mxGeometry x="157.5" y="977" width="386" height="34" as="geometry" />
        </mxCell>
        <mxCell id="gnUuABjo8lkJeuZGl7Jf-98" value="" style="edgeStyle=orthogonalEdgeStyle;rounded=0;orthogonalLoop=1;jettySize=auto;html=1;" edge="1" parent="1" source="gnUuABjo8lkJeuZGl7Jf-99" target="gnUuABjo8lkJeuZGl7Jf-101">
          <mxGeometry relative="1" as="geometry" />
        </mxCell>
        <mxCell id="gnUuABjo8lkJeuZGl7Jf-99" value="backbone" style="rounded=0;whiteSpace=wrap;html=1;" vertex="1" parent="1">
          <mxGeometry x="54" y="1233.5" width="166" height="70" as="geometry" />
        </mxCell>
        <mxCell id="gnUuABjo8lkJeuZGl7Jf-100" value="" style="edgeStyle=orthogonalEdgeStyle;rounded=0;orthogonalLoop=1;jettySize=auto;html=1;" edge="1" parent="1" source="gnUuABjo8lkJeuZGl7Jf-101" target="gnUuABjo8lkJeuZGl7Jf-102">
          <mxGeometry relative="1" as="geometry" />
        </mxCell>
        <mxCell id="gnUuABjo8lkJeuZGl7Jf-101" value="head" style="rounded=0;whiteSpace=wrap;html=1;" vertex="1" parent="1">
          <mxGeometry x="267" y="1233.5" width="166" height="70" as="geometry" />
        </mxCell>
        <mxCell id="gnUuABjo8lkJeuZGl7Jf-102" value="output layer" style="rounded=0;whiteSpace=wrap;html=1;" vertex="1" parent="1">
          <mxGeometry x="480" y="1233.5" width="64" height="70" as="geometry" />
        </mxCell>
        <mxCell id="gnUuABjo8lkJeuZGl7Jf-103" value="targets" style="rounded=0;whiteSpace=wrap;html=1;" vertex="1" parent="1">
          <mxGeometry x="591" y="1233.5" width="58" height="70" as="geometry" />
        </mxCell>
        <mxCell id="gnUuABjo8lkJeuZGl7Jf-104" value="" style="endArrow=classic;startArrow=classic;html=1;rounded=0;exitX=1;exitY=0.5;exitDx=0;exitDy=0;entryX=0;entryY=0.5;entryDx=0;entryDy=0;" edge="1" parent="1" source="gnUuABjo8lkJeuZGl7Jf-102" target="gnUuABjo8lkJeuZGl7Jf-103">
          <mxGeometry width="50" height="50" relative="1" as="geometry">
            <mxPoint x="559" y="1380.5" as="sourcePoint" />
            <mxPoint x="609" y="1330.5" as="targetPoint" />
          </mxGeometry>
        </mxCell>
        <mxCell id="gnUuABjo8lkJeuZGl7Jf-105" value="Loss" style="edgeLabel;html=1;align=center;verticalAlign=middle;resizable=0;points=[];" vertex="1" connectable="0" parent="gnUuABjo8lkJeuZGl7Jf-104">
          <mxGeometry x="-0.0043" y="-1" relative="1" as="geometry">
            <mxPoint x="1" y="-14" as="offset" />
          </mxGeometry>
        </mxCell>
        <mxCell id="gnUuABjo8lkJeuZGl7Jf-106" value="Loss" style="edgeLabel;html=1;align=center;verticalAlign=middle;resizable=0;points=[];" vertex="1" connectable="0" parent="1">
          <mxGeometry x="540" y="1239.5" as="geometry">
            <mxPoint x="-13" y="-39" as="offset" />
          </mxGeometry>
        </mxCell>
        <mxCell id="gnUuABjo8lkJeuZGl7Jf-107" value="Teacher" style="text;html=1;align=center;verticalAlign=middle;resizable=0;points=[];autosize=1;strokeColor=none;fillColor=none;fontStyle=1" vertex="1" parent="1">
          <mxGeometry x="36.5" y="1004" width="61" height="26" as="geometry" />
        </mxCell>
        <mxCell id="gnUuABjo8lkJeuZGl7Jf-108" value="Student" style="text;html=1;align=center;verticalAlign=middle;resizable=0;points=[];autosize=1;strokeColor=none;fillColor=none;fontStyle=1" vertex="1" parent="1">
          <mxGeometry x="37.5" y="1193" width="59" height="26" as="geometry" />
        </mxCell>
        <mxCell id="gnUuABjo8lkJeuZGl7Jf-109" value="conv2d" style="rounded=0;whiteSpace=wrap;html=1;" vertex="1" parent="1">
          <mxGeometry x="161.5" y="1152" width="54" height="24" as="geometry" />
        </mxCell>
        <mxCell id="gnUuABjo8lkJeuZGl7Jf-111" value="" style="endArrow=classic;startArrow=classic;html=1;rounded=0;entryX=0.5;entryY=0;entryDx=0;entryDy=0;exitX=0.5;exitY=1;exitDx=0;exitDy=0;" edge="1" parent="1" source="gnUuABjo8lkJeuZGl7Jf-109">
          <mxGeometry width="50" height="50" relative="1" as="geometry">
            <mxPoint x="45.5" y="1209" as="sourcePoint" />
            <mxPoint x="188.5" y="1233.5" as="targetPoint" />
          </mxGeometry>
        </mxCell>
        <mxCell id="gnUuABjo8lkJeuZGl7Jf-112" value="MSE loss" style="edgeLabel;html=1;align=center;verticalAlign=middle;resizable=0;points=[];" vertex="1" connectable="0" parent="gnUuABjo8lkJeuZGl7Jf-111">
          <mxGeometry x="-0.033" y="-2" relative="1" as="geometry">
            <mxPoint x="37" y="-1" as="offset" />
          </mxGeometry>
        </mxCell>
      </root>
    </mxGraphModel>
  </diagram>
</mxfile>
